<?xml version="1.0" standalone="no"?>
<!DOCTYPE svg PUBLIC "-//W3C//DTD SVG 20010904//EN"
 "http://www.w3.org/TR/2001/REC-SVG-20010904/DTD/svg10.dtd">
<svg version="1.0" xmlns="http://www.w3.org/2000/svg"
 width="684.000000pt" height="223.000000pt" viewBox="0 0 684.000000 223.000000"
 preserveAspectRatio="xMidYMid meet">

<g transform="translate(0.000000,223.000000) scale(0.100000,-0.100000)"
fill="#000000" stroke="none">
<path d="M6560 2174 c-14 -2 -218 -22 -455 -43 l-430 -40 -22 -26 c-13 -15
-23 -40 -24 -58 l-1 -32 -12 34 c-7 19 -24 44 -38 54 -25 19 -33 19 -180 7
-84 -7 -161 -16 -170 -21 -23 -12 -34 -35 -43 -87 l-7 -43 -45 41 c-71 66
-122 85 -228 85 -79 0 -97 -4 -150 -29 -35 -17 -82 -53 -112 -84 l-53 -55 0
42 c0 31 -6 48 -25 66 -29 29 -47 30 -409 15 -215 -9 -231 -11 -252 -31 -13
-12 -26 -37 -30 -55 l-6 -32 -43 33 c-80 61 -96 63 -570 70 -452 7 -588 10
-825 21 -136 6 -147 5 -171 -14 -39 -31 -51 -85 -35 -152 l14 -55 1 81 c1 65
5 87 20 105 22 28 -14 27 491 9 168 -6 445 -10 617 -10 294 0 316 -1 370 -21
41 -15 72 -36 106 -71 l47 -50 0 55 c0 92 5 93 277 102 387 13 372 13 394 -14
14 -17 19 -39 19 -83 l0 -61 42 57 c43 58 117 114 177 134 54 19 189 15 236
-7 51 -23 100 -64 136 -115 l29 -39 0 71 c0 111 4 113 228 132 84 7 129 7 142
0 17 -9 57 -114 61 -161 1 -8 5 21 9 65 11 112 14 114 185 126 77 6 178 15
225 20 47 5 199 19 337 32 l253 22 22 -22 c23 -22 23 -26 23 -283 l0 -261 -29
-25 c-27 -23 -36 -25 -103 -21 -97 5 -107 14 -113 121 l-5 82 -47 3 -48 3 0
-110 0 -111 79 0 c107 0 111 -5 111 -163 0 -112 -1 -119 -25 -142 -21 -22 -33
-25 -95 -25 l-70 0 0 -99 0 -99 46 -4 c25 -2 47 -1 50 1 2 2 4 37 4 77 0 103
15 119 106 116 93 -3 121 -16 135 -61 6 -23 9 -124 7 -274 l-3 -239 -25 -20
c-29 -24 -14 -25 -355 32 -272 45 -301 53 -310 81 -6 18 -7 18 -33 0 -26 -19
-30 -19 -144 -2 -64 10 -123 23 -131 29 -8 7 -25 51 -38 100 l-24 87 -5 -66
c-9 -117 -20 -121 -249 -91 -164 22 -171 28 -171 135 l0 71 -30 -41 c-132
-179 -434 -155 -561 45 l-27 42 -4 -66 c-6 -96 -8 -98 -193 -90 -82 4 -224 11
-315 16 -91 5 -208 9 -261 10 -118 0 -126 6 -168 110 l-30 75 0 -66 c-1 -50
-6 -73 -20 -90 -19 -24 -21 -24 -227 -25 -114 -1 -328 -5 -475 -8 -331 -9
-309 -20 -309 144 0 97 2 112 20 130 11 11 24 20 30 20 6 0 10 87 10 240 0
222 -1 240 -17 240 -10 0 -24 -4 -31 -9 -9 -5 -40 -144 -83 -372 -38 -200 -71
-369 -74 -376 -10 -27 -54 -41 -150 -48 -137 -9 -137 -9 -171 160 -14 72 -28
137 -31 145 -3 8 -19 -56 -37 -144 -23 -114 -37 -162 -50 -171 -10 -7 -57 -16
-104 -20 -48 -4 -94 -9 -104 -11 -9 -3 -28 6 -42 18 -25 22 -30 43 -79 328
-34 200 -53 289 -55 260 -6 -106 -23 -248 -38 -304 -57 -220 -198 -367 -367
-383 -180 -16 -308 105 -367 348 -11 46 -20 98 -20 115 0 48 -10 47 -53 -2
-45 -52 -116 -91 -179 -99 -89 -12 -88 -12 -88 -54 0 -33 4 -40 24 -45 38 -10
48 -50 44 -190 -3 -110 -6 -128 -23 -145 -15 -15 -59 -27 -182 -48 l-162 -28
-25 24 c-26 24 -26 27 -26 172 l0 148 35 28 35 28 0 388 0 387 -24 10 c-40 15
-46 40 -46 193 0 200 -11 193 266 167 182 -18 204 -22 262 -51 50 -24 73 -44
107 -91 25 -33 52 -84 62 -114 9 -30 19 -54 23 -54 3 0 12 16 19 35 6 19 30
58 52 87 81 109 172 149 293 129 86 -14 145 -47 209 -114 l47 -51 0 42 c0 29
6 48 20 62 23 23 52 24 239 10 166 -13 171 -17 172 -149 l1 -96 12 59 c18 82
37 96 132 96 43 0 90 -6 109 -14 19 -8 35 -11 35 -7 0 32 -218 45 -251 15 -17
-15 -18 -14 -24 19 -12 62 -40 78 -157 88 -140 11 -246 11 -268 -1 -10 -5 -23
-24 -29 -41 l-11 -31 -47 41 c-96 81 -216 109 -325 77 -68 -19 -155 -94 -198
-169 l-28 -49 -26 58 c-40 88 -87 138 -162 175 -62 31 -81 34 -270 53 -230 22
-245 20 -270 -41 -13 -29 -15 -72 -12 -215 l3 -180 33 -29 32 -29 0 -330 0
-330 -32 -29 -33 -29 -3 -170 c-4 -190 5 -243 44 -268 23 -16 35 -15 182 10
86 15 165 29 175 32 20 6 47 54 47 84 0 20 -1 20 -23 -5 -20 -24 -39 -29 -184
-54 -145 -25 -166 -27 -190 -14 -32 17 -43 31 -43 58 0 13 3 16 8 8 4 -6 20
-18 35 -26 24 -13 45 -11 190 14 217 38 209 29 205 231 l-3 149 25 5 c53 11
107 40 152 82 46 43 47 43 52 20 3 -12 12 -58 21 -101 21 -98 81 -220 137
-276 76 -77 159 -101 277 -81 127 21 232 110 301 254 38 81 73 224 65 274 -3
20 -2 30 2 22 4 -10 11 2 19 35 9 34 12 39 8 14 -5 -38 58 -424 78 -472 15
-38 36 -47 110 -46 99 1 167 14 188 35 13 13 27 55 40 124 12 58 25 114 30
125 5 11 11 27 14 35 4 8 4 -1 1 -19 -8 -56 24 -208 50 -239 23 -27 25 -27
131 -24 124 4 157 16 173 64 6 18 40 188 76 377 36 189 68 347 71 352 3 5 12
9 20 9 12 0 14 -30 14 -179 0 -173 -1 -180 -21 -186 -33 -11 -49 -64 -49 -167
0 -83 3 -96 24 -123 28 -35 -33 -33 571 -20 l420 8 27 28 c16 15 28 38 28 51
0 18 4 15 19 -17 10 -22 25 -46 33 -52 10 -9 92 -16 249 -23 129 -5 313 -15
410 -21 155 -9 180 -9 207 5 17 9 32 21 35 28 4 10 6 10 6 1 1 -18 96 -104
148 -135 25 -14 75 -32 110 -38 120 -23 217 3 295 78 l37 35 7 -51 c11 -82 26
-90 205 -113 85 -11 164 -18 176 -14 30 7 63 44 64 69 0 12 9 -2 20 -30 14
-38 27 -55 47 -62 38 -15 192 -34 244 -31 24 1 59 -5 78 -13 31 -14 464 -92
581 -105 42 -5 48 -3 72 27 18 20 27 43 26 63 0 27 -2 29 -9 12 -11 -30 -34
-45 -66 -47 -16 -2 -158 20 -317 47 -203 34 -292 54 -305 65 -13 13 -22 15
-39 7 -31 -14 -262 18 -283 39 -8 8 -23 36 -32 62 -9 26 -17 38 -17 27 -1 -28
-28 -64 -55 -75 -14 -5 -78 -1 -167 10 -79 11 -150 19 -157 20 -20 0 -62 47
-62 69 0 19 1 19 23 -3 19 -19 44 -26 157 -41 74 -10 151 -18 172 -19 43 -1
75 24 86 68 l8 31 12 -46 c6 -25 19 -53 29 -61 26 -24 254 -55 288 -40 14 6
25 8 25 3 0 -17 60 -32 317 -76 323 -56 339 -57 370 -21 23 27 23 30 23 281 0
165 -4 263 -11 278 -12 27 -47 47 -84 47 -53 0 -55 4 -55 120 l0 108 52 7 c64
9 98 40 97 87 0 30 -1 31 -11 12 -13 -29 -49 -44 -103 -44 -34 0 -47 5 -55 20
-10 19 -8 20 49 20 50 0 65 4 91 26 l31 27 -3 268 c-3 256 -4 269 -24 289 -21
21 -69 31 -114 24z m-6360 -436 c0 -13 -4 -17 -12 -12 -29 16 -48 38 -48 56 0
17 2 17 30 -4 17 -12 30 -30 30 -40z m6220 -18 c0 -16 -7 -20 -35 -20 -28 0
-35 4 -35 20 0 16 7 20 35 20 28 0 35 -4 35 -20z m-3790 -90 c0 -13 -7 -20
-20 -20 -14 0 -20 -7 -20 -22 0 -12 -3 -19 -6 -16 -3 3 -2 22 1 42 5 26 12 36
26 36 12 0 19 -7 19 -20z m3790 -25 c0 -45 0 -45 -35 -45 -35 0 -35 0 -35 45
0 45 0 45 35 45 35 0 35 0 35 -45z m24 -30 c3 -8 1 -15 -4 -15 -6 0 -10 7 -10
15 0 8 2 15 4 15 2 0 6 -7 10 -15z m-3867 -47 c-3 -7 -5 -2 -5 12 0 14 2 19 5
13 2 -7 2 -19 0 -25z m-10 -50 c-3 -7 -5 -2 -5 12 0 14 2 19 5 13 2 -7 2 -19
0 -25z m-10 -60 c-3 -7 -5 -2 -5 12 0 14 2 19 5 13 2 -7 2 -19 0 -25z m-10
-50 c-3 -7 -5 -2 -5 12 0 14 2 19 5 13 2 -7 2 -19 0 -25z m-10 -50 c-3 -7 -5
-2 -5 12 0 14 2 19 5 13 2 -7 2 -19 0 -25z m-910 -20 c-3 -7 -5 -2 -5 12 0 14
2 19 5 13 2 -7 2 -19 0 -25z m900 -30 c-3 -7 -5 -2 -5 12 0 14 2 19 5 13 2 -7
2 -19 0 -25z m-10 -60 c-3 -7 -5 -2 -5 12 0 14 2 19 5 13 2 -7 2 -19 0 -25z
m4023 22 c0 -5 -5 -10 -11 -10 -5 0 -7 5 -4 10 3 6 8 10 11 10 2 0 4 -4 4 -10z
m-5730 -52 c0 -12 -3 -18 -6 -15 -4 4 -29 -13 -56 -38 -52 -47 -115 -73 -188
-77 -34 -2 -45 1 -48 13 -2 12 11 18 63 27 78 13 143 43 186 88 34 35 49 36
49 2z m837 0 c-3 -7 -5 -2 -5 12 0 14 2 19 5 13 2 -7 2 -19 0 -25z m4793 2
c-8 -15 -21 -20 -50 -20 -33 0 -40 3 -40 20 0 17 7 20 50 20 48 0 50 -1 40
-20z m-3933 -22 c-3 -7 -5 -2 -5 12 0 14 2 19 5 13 2 -7 2 -19 0 -25z m-927
-101 c-31 -103 -82 -194 -143 -256 -80 -82 -155 -112 -274 -112 -149 0 -261
106 -322 305 -11 37 -21 76 -21 85 1 9 11 -15 24 -54 64 -196 172 -296 320
-296 119 0 206 38 291 128 42 46 107 171 126 243 7 28 15 47 17 41 2 -6 -6
-44 -18 -84z m77 71 c-3 -8 -6 -5 -6 6 -1 11 2 17 5 13 3 -3 4 -12 1 -19z
m-840 -20 c-3 -7 -5 -2 -5 12 0 14 2 19 5 13 2 -7 2 -19 0 -25z m1680 0 c-3
-7 -5 -2 -5 12 0 14 2 19 5 13 2 -7 2 -19 0 -25z m3921 -45 c3 -37 0 -43 -17
-43 -40 0 -51 11 -51 52 0 38 1 39 33 36 30 -3 32 -6 35 -45z m-4751 5 c-3 -7
-5 -2 -5 12 0 14 2 19 5 13 2 -7 2 -19 0 -25z m423 12 c0 -11 -4 -20 -10 -20
-5 0 -10 9 -10 20 0 11 5 20 10 20 6 0 10 -9 10 -20z m397 -22 c-3 -7 -5 -2
-5 12 0 14 2 19 5 13 2 -7 2 -19 0 -25z m-420 -40 c-3 -7 -5 -2 -5 12 0 14 2
19 5 13 2 -7 2 -19 0 -25z m-390 -10 c-3 -7 -5 -2 -5 12 0 14 2 19 5 13 2 -7
2 -19 0 -25z m800 -10 c-3 -7 -5 -2 -5 12 0 14 2 19 5 13 2 -7 2 -19 0 -25z
m-420 -30 c-3 -7 -5 -2 -5 12 0 14 2 19 5 13 2 -7 2 -19 0 -25z m50 0 c-3 -7
-5 -2 -5 12 0 14 2 19 5 13 2 -7 2 -19 0 -25z m-420 -20 c-3 -7 -5 -2 -5 12 0
14 2 19 5 13 2 -7 2 -19 0 -25z m780 0 c-3 -7 -5 -2 -5 12 0 14 2 19 5 13 2
-7 2 -19 0 -25z m2277 -98 c153 -76 289 -60 409 48 25 24 37 30 37 19 0 -44
-114 -130 -198 -147 -115 -25 -273 28 -356 121 -25 28 -46 60 -46 71 0 16 10
9 46 -31 28 -31 69 -62 108 -81z m-2587 12 c14 -11 45 -13 131 -9 119 6 142
14 163 62 7 15 8 11 4 -15 -3 -19 -16 -46 -29 -58 -20 -21 -36 -24 -123 -29
-55 -3 -112 -3 -127 1 -29 7 -52 44 -61 101 l-6 40 15 -40 c9 -22 23 -46 33
-53z m-110 56 c-3 -8 -6 -5 -6 6 -1 11 2 17 5 13 3 -3 4 -12 1 -19z m-350 -20
c-3 -8 -6 -5 -6 6 -1 11 2 17 5 13 3 -3 4 -12 1 -19z m326 -70 c-22 -37 -42
-44 -167 -53 l-95 -7 -31 30 c-16 17 -30 39 -30 50 0 18 4 17 31 -10 l30 -31
87 7 c136 11 152 15 171 47 11 20 17 24 19 14 2 -9 -5 -30 -15 -47z"/>
<path d="M6320 2080 c-151 -15 -276 -28 -277 -29 -2 -1 -3 -57 -3 -126 l0
-125 35 0 35 0 0 -405 0 -405 -35 0 -35 0 0 -119 c0 -71 4 -122 10 -126 12 -8
524 -95 558 -95 l22 0 0 244 0 243 -61 7 c-34 4 -64 4 -67 1 -4 -3 -8 -51 -10
-105 -4 -85 -7 -100 -21 -99 -9 0 -54 6 -101 13 l-85 11 -3 153 -3 152 96 0
95 0 0 110 0 110 -95 0 -95 0 0 160 0 160 44 0 c23 0 71 3 105 6 l61 7 0 -75
c0 -42 3 -90 6 -107 6 -31 7 -31 70 -31 l64 0 -2 247 c-3 212 -5 248 -18 249
-8 1 -139 -11 -290 -26z"/>
<path d="M210 1965 l0 -135 30 0 30 0 0 -449 0 -450 -27 -3 -28 -3 -3 -132 -3
-133 33 1 c18 0 85 11 148 22 l115 22 3 128 3 127 -36 0 -36 0 3 93 3 92 78 8
c43 4 98 17 122 28 118 55 185 215 185 436 -1 236 -77 395 -211 436 -46 14
-318 47 -386 47 -23 0 -23 -2 -23 -135z m389 -170 c47 -24 66 -76 66 -185 0
-154 -31 -195 -155 -201 l-65 -4 -3 203 -2 202 65 0 c38 0 78 -6 94 -15z"/>
<path d="M500 1610 l0 -150 26 0 c61 0 84 41 84 150 0 109 -23 150 -84 150
l-26 0 0 -150z m72 113 c10 -9 18 -25 18 -36 0 -18 -1 -19 -17 -5 -10 9 -27
18 -38 20 -11 2 -21 11 -23 21 -5 23 35 23 60 0z m-2 -93 c15 -15 20 -33 20
-69 0 -53 -17 -81 -51 -81 -17 0 -19 8 -19 85 0 93 10 105 50 65z"/>
<path d="M5825 2035 c-66 -7 -121 -13 -122 -14 -2 -1 -3 -55 -3 -121 l0 -120
35 0 35 0 -1 -272 c0 -150 -3 -266 -7 -258 -3 8 -54 182 -112 385 l-106 370
-70 -2 c-38 -1 -102 -5 -141 -9 l-73 -6 0 -114 0 -114 30 0 30 0 0 -345 0
-345 -30 0 -30 0 0 -110 c0 -60 1 -110 3 -110 193 -27 290 -35 293 -25 3 6 3
58 2 116 l-3 104 -27 3 -28 3 0 251 c0 138 2 249 4 247 2 -2 52 -173 111 -379
59 -206 109 -377 111 -378 3 -4 180 -32 202 -32 9 0 12 110 12 514 l0 515 33
3 32 3 0 125 0 125 -30 1 c-16 1 -84 -4 -150 -11z"/>
<path d="M1104 2014 c-168 -62 -269 -377 -235 -737 30 -320 131 -478 306 -479
160 -1 288 128 346 349 26 100 36 317 20 434 -38 271 -162 435 -336 445 -37 2
-76 -2 -101 -12z m187 -284 c59 -62 83 -152 83 -315 0 -107 -3 -143 -22 -200
-36 -117 -73 -160 -145 -172 -101 -16 -167 131 -167 370 0 165 36 289 96 336
18 14 41 21 72 21 40 0 50 -5 83 -40z"/>
<path d="M1162 1697 c-50 -53 -77 -219 -62 -379 14 -146 47 -218 100 -218 65
0 108 101 117 271 9 165 -22 293 -79 333 -31 22 -51 20 -76 -7z m87 -23 c21
-26 51 -113 51 -143 -1 -9 -9 8 -19 37 -42 122 -104 125 -147 4 -7 -21 -13
-28 -13 -17 0 26 22 88 43 120 22 33 59 33 85 -1z m-5 -89 c86 -93 69 -415
-25 -465 -82 -45 -138 216 -85 394 29 96 65 119 110 71z m-127 -87 c-3 -8 -6
-5 -6 6 -1 11 2 17 5 13 3 -3 4 -12 1 -19z"/>
<path d="M1548 1974 c-5 -4 -8 -51 -8 -104 0 -106 5 -116 55 -122 l29 -3 73
-419 c40 -231 75 -426 77 -433 4 -11 24 -12 88 -7 46 4 88 12 95 18 6 6 35
136 64 288 29 153 56 274 60 270 3 -4 30 -128 59 -276 l53 -269 89 5 c49 3 93
9 98 14 4 5 40 183 81 397 l73 387 38 0 39 0 -3 103 -3 102 -143 8 c-79 5
-150 6 -158 3 -12 -5 -14 -26 -12 -103 l3 -98 33 -3 c25 -3 32 -7 28 -20 -3
-9 -21 -107 -41 -217 -20 -110 -37 -201 -39 -202 -1 -1 -26 120 -55 270 -29
150 -56 282 -61 295 -9 20 -16 22 -84 22 -50 0 -75 -4 -78 -12 -3 -7 -29 -140
-58 -296 -30 -155 -57 -279 -60 -275 -4 5 -22 98 -39 208 -18 110 -35 208 -37
217 -4 12 2 17 23 20 l28 3 3 104 c1 57 -1 108 -5 112 -11 10 -296 23 -305 13z"/>
<path d="M4835 1971 c-81 -21 -151 -81 -203 -175 -91 -161 -107 -472 -33 -667
44 -117 136 -213 229 -239 59 -16 152 -12 198 9 85 39 148 130 186 269 30 112
30 392 0 504 -38 139 -104 238 -186 280 -44 22 -142 32 -191 19z m132 -246
c60 -42 93 -146 93 -297 0 -126 -13 -197 -46 -255 -31 -54 -59 -73 -109 -73
-119 0 -180 125 -173 354 3 99 8 130 27 174 34 75 79 112 139 112 26 0 57 -7
69 -15z"/>
<path d="M4845 1657 c-38 -38 -53 -83 -62 -188 -7 -88 9 -195 38 -250 24 -48
72 -75 105 -60 86 39 113 336 43 473 -34 66 -74 75 -124 25z m112 -37 c12 -25
24 -63 28 -85 l5 -40 -14 43 c-22 67 -43 92 -74 92 -36 0 -69 -35 -87 -91 -8
-24 -14 -37 -14 -28 -2 32 28 112 51 136 16 17 31 23 53 21 25 -2 34 -11 52
-48z m-14 -69 c54 -65 62 -235 15 -329 -21 -42 -26 -47 -58 -47 -28 0 -38 6
-56 33 -61 90 -54 283 11 348 32 32 58 30 88 -5z"/>
<path d="M4134 1930 c-94 -4 -177 -10 -183 -14 -7 -5 -11 -62 -11 -177 l0
-169 59 0 c67 0 65 -2 77 93 l6 57 110 0 c87 0 109 -3 105 -13 -3 -7 -84 -141
-181 -298 l-176 -284 0 -83 c0 -57 4 -84 13 -87 6 -2 102 -9 212 -15 110 -5
235 -13 278 -16 l77 -7 0 182 0 181 -59 0 -58 0 -7 -52 c-14 -106 -4 -98 -127
-98 -60 0 -109 4 -109 8 0 4 39 71 86 148 47 76 128 209 180 296 l94 156 0
101 0 101 -107 -2 c-60 0 -185 -4 -279 -8z"/>
<path d="M2634 1915 c-3 -6 -4 -52 -2 -101 l3 -89 33 -3 32 -3 0 -289 0 -289
-32 -3 -33 -3 0 -95 0 -95 85 2 c47 1 178 5 293 9 l207 6 0 164 0 164 -52 0
c-29 0 -58 -4 -64 -8 -7 -4 -15 -37 -19 -74 l-7 -68 -104 0 -104 0 0 105 0
104 98 3 97 3 0 75 0 75 -97 3 -98 3 0 99 0 100 104 0 104 0 7 -62 c4 -35 12
-66 19 -70 6 -4 28 -8 48 -8 70 0 68 -6 68 176 0 162 0 164 -22 168 -13 3
-144 7 -291 9 -198 3 -270 1 -273 -8z"/>
<path d="M3260 1815 l0 -95 30 0 30 0 0 -290 0 -290 -30 0 -30 0 0 -90 0 -91
148 3 147 3 0 85 0 85 -27 3 c-28 3 -28 4 -28 78 l0 75 47 -3 48 -3 63 -161
63 -162 91 -7 c52 -4 94 -3 100 3 5 5 8 47 6 93 l-3 84 -41 3 -41 3 -37 92
-38 92 46 47 c61 64 80 128 74 257 -6 141 -48 215 -148 260 -41 19 -65 21
-257 21 l-213 0 0 -95z m428 -129 c24 -24 27 -34 27 -96 0 -63 -3 -72 -28 -97
-24 -25 -36 -28 -107 -31 l-80 -4 0 132 0 133 81 -5 c71 -4 84 -8 107 -32z"/>
<path d="M3552 1588 l3 -73 39 2 c53 4 66 17 66 72 0 58 -12 71 -67 71 l-44 0
3 -72z m79 52 c10 -6 19 -20 19 -31 0 -16 -3 -18 -19 -9 -11 5 -29 10 -40 10
-14 0 -21 6 -21 20 0 22 28 27 61 10z m4 -100 c-3 -5 -19 -10 -36 -10 -16 0
-29 5 -29 10 0 6 16 10 36 10 21 0 33 -4 29 -10z"/>
<path d="M6013 1743 c-10 -4 -13 -85 -13 -359 l0 -354 25 12 25 11 -2 345 c-2
220 -7 346 -13 348 -5 1 -16 0 -22 -3z m27 -33 c0 -11 -7 -20 -15 -20 -8 0
-15 9 -15 20 0 11 7 20 15 20 8 0 15 -9 15 -20z m-20 -654 c-7 -7 -10 84 -10
280 0 160 3 294 8 298 4 4 8 -122 10 -280 1 -185 -1 -291 -8 -298z"/>
<path d="M5692 1693 c14 -52 18 -53 18 -5 0 30 -4 42 -14 42 -12 0 -12 -7 -4
-37z"/>
<path d="M1886 1701 c-15 -16 -17 -28 -10 -63 l8 -43 13 55 c15 67 13 78 -11
51z"/>
<path d="M2254 1683 c3 -10 8 -36 12 -58 l8 -40 7 30 c11 50 10 60 -12 73 -18
12 -20 11 -15 -5z"/>
<path d="M2930 1610 l0 -50 56 0 c47 0 55 3 50 16 -3 9 -6 31 -6 50 l0 34 -50
0 -50 0 0 -50z m90 9 c0 -17 -5 -20 -37 -17 -27 2 -39 8 -41 21 -3 14 4 17 37
17 35 0 41 -3 41 -21z"/>
<path d="M4125 1610 c-11 -79 -29 -94 -118 -98 -76 -4 -76 -4 -83 -36 -9 -44
-42 -106 -72 -139 -24 -26 -25 -29 -13 -65 19 -54 39 -82 59 -82 11 0 62 73
157 227 77 124 142 230 143 235 2 4 -12 8 -31 8 -35 0 -35 -1 -42 -50z m45 20
c-6 -11 -15 -20 -20 -20 -6 0 -10 9 -10 20 0 13 7 20 20 20 18 0 19 -3 10 -20z
m-92 -150 c-11 -16 -24 -20 -74 -20 l-60 0 -13 -50 c-15 -60 -69 -139 -81
-120 -6 9 4 28 26 54 20 24 42 66 52 98 l17 58 73 0 c70 0 72 -1 60 -20z m-58
-86 c0 -17 -113 -184 -125 -184 -25 0 -24 30 1 67 14 21 30 57 37 80 11 41 13
43 49 43 21 0 38 -3 38 -6z"/>
<path d="M4382 1400 c-67 -110 -122 -202 -122 -205 0 -4 17 -5 37 -3 25 2 39
8 40 18 14 111 29 129 111 131 50 2 52 3 20 8 l-38 6 25 40 24 40 1 -37 c0
-21 5 -38 11 -38 7 0 9 11 6 28 -3 15 -2 68 2 117 4 50 7 91 6 92 -1 2 -56
-87 -123 -197z m56 24 c-41 -66 -58 -87 -66 -79 -2 2 20 44 50 93 33 57 54 84
56 73 2 -10 -16 -49 -40 -87z m-122 -199 c-27 -42 -39 -28 -14 16 16 29 24 36
26 25 2 -9 -4 -28 -12 -41z"/>
<path d="M3246 1534 c-11 -8 -43 -14 -73 -14 l-53 0 0 -90 0 -90 58 0 c32 0
63 -5 70 -12 6 -6 14 -9 17 -6 3 3 4 55 3 116 -3 107 -4 110 -22 96z m4 -43
c0 -13 -10 -20 -31 -25 -57 -11 -79 -8 -79 13 0 20 4 21 93 29 11 1 17 -5 17
-17z m0 -107 c0 -33 -2 -36 -22 -30 -13 3 -38 6 -55 6 -28 0 -33 4 -33 24 0
22 5 25 48 29 26 2 50 4 55 5 4 1 7 -14 7 -34z"/>
<path d="M2930 1245 l0 -45 50 0 50 0 0 45 0 45 -50 0 -50 0 0 -45z m90 15 c0
-17 -7 -20 -40 -20 -33 0 -40 3 -40 20 0 17 7 20 40 20 33 0 40 -3 40 -20z"/>
<path d="M3550 1215 c0 -8 4 -15 10 -15 5 0 7 7 4 15 -4 8 -8 15 -10 15 -2 0
-4 -7 -4 -15z"/>
<path d="M5551 1139 c-1 -29 3 -38 20 -42 14 -4 18 -2 11 6 -5 7 -14 26 -20
42 l-10 30 -1 -36z"/>
<path d="M3624 922 c-4 -18 -18 -41 -32 -52 -23 -18 -41 -20 -236 -20 -116 0
-325 -5 -464 -10 -161 -6 -261 -6 -278 0 -13 6 -32 25 -40 42 l-15 33 5 -44
c3 -29 13 -52 29 -69 l25 -24 368 11 c203 6 419 11 480 11 102 0 112 2 131 23
11 12 23 35 27 51 l7 28 22 -43 c12 -24 33 -49 47 -56 15 -7 135 -16 315 -23
160 -7 342 -14 407 -17 115 -6 117 -5 142 20 16 16 26 37 25 54 0 15 -3 22 -6
15 -3 -7 -19 -20 -36 -28 -27 -14 -50 -15 -206 -5 -97 6 -281 16 -410 21 -160
7 -238 14 -249 22 -8 7 -23 31 -33 53 l-18 40 -7 -33z"/>
<path d="M3290 380 c0 -67 4 -110 10 -110 6 0 10 38 10 93 l0 92 53 -92 c28
-51 58 -93 65 -93 9 0 12 29 12 110 0 67 -4 110 -10 110 -6 0 -10 -38 -10 -92
l0 -93 -52 93 c-28 50 -58 92 -65 92 -10 0 -13 -26 -13 -110z"/>
<path d="M3616 479 c-3 -8 -7 -57 -8 -111 l-3 -96 35 -6 c61 -10 90 -7 90 9 0
11 -12 15 -51 15 -48 0 -51 1 -45 23 3 12 6 30 6 40 0 13 9 17 40 17 22 0 40
5 40 10 0 6 -18 10 -40 10 -39 0 -40 1 -40 35 l0 35 50 0 c28 0 50 5 50 10 0
6 -10 10 -22 10 -13 0 -40 3 -60 6 -27 5 -39 3 -42 -7z"/>
<path d="M2980 465 c0 -10 10 -15 29 -15 25 0 29 -4 35 -37 3 -21 6 -64 6 -95
0 -46 3 -58 15 -58 14 0 15 13 9 100 l-7 100 37 0 c20 0 36 5 36 10 0 6 -33
10 -80 10 -64 0 -80 -3 -80 -15z"/>
<path d="M3912 455 c-36 -26 -26 -62 28 -100 55 -39 63 -78 17 -83 -16 -2 -39
4 -52 12 -28 19 -42 5 -17 -17 31 -27 75 -30 105 -7 37 30 35 63 -6 94 -19 15
-39 26 -45 26 -19 0 -25 41 -9 58 13 13 20 13 47 2 33 -14 43 -11 31 8 -13 21
-73 25 -99 7z"/>
<path d="M2805 443 c1 -10 6 -60 10 -110 6 -72 11 -93 22 -93 12 0 14 11 9 63
-14 139 -18 157 -31 157 -7 0 -12 -8 -10 -17z"/>
<path d="M2568 433 c-24 -4 -28 -9 -27 -36 1 -67 25 -181 38 -185 10 -3 12 6
6 47 l-7 50 41 7 c55 9 52 24 -4 24 -44 0 -45 0 -45 34 0 35 15 46 68 46 12 0
22 5 22 10 0 10 -38 11 -92 3z"/>
<path d="M4192 424 c-31 -22 -28 -57 9 -88 17 -14 35 -26 40 -26 15 0 28 -43
17 -57 -14 -17 -43 -16 -78 2 -38 19 -49 2 -14 -22 30 -19 87 -21 109 -3 8 7
15 27 15 45 0 28 -7 37 -45 62 -66 41 -58 99 11 73 40 -16 51 -11 25 10 -28
24 -59 25 -89 4z"/>
<path d="M2350 271 c-14 -4 -20 -10 -15 -13 14 -8 75 2 75 13 0 10 -23 10 -60
0z"/>
<path d="M4420 272 c0 -11 69 -27 78 -18 9 10 -4 17 -42 23 -22 3 -36 2 -36
-5z"/>
</g>
</svg>
